<?xml version="1.0" encoding="UTF-8"?>
<svg version="1.1" viewBox="0 0 14 16" xmlns="http://www.w3.org/2000/svg">
<title>clippy</title>
<desc>Created with Sketch.</desc>
<g fill="none" fill-rule="evenodd">
<g fill="#000">
<path d="m2 13h4v1h-4v-1zm5-6h-5v1h5v-1zm2 3v-2l-3 3 3 3v-2h5v-2h-5zm-4.5-1h-2.5v1h2.5v-1zm-2.5 3h2.5v-1h-2.5v1zm9 1h1v2c-0.02 0.28-0.11 0.52-0.3 0.7s-0.42 0.28-0.7 0.3h-10c-0.55 0-1-0.45-1-1v-11c0-0.55 0.45-1 1-1h3c0-1.11 0.89-2 2-2s2 0.89 2 2h3c0.55 0 1 0.45 1 1v5h-1v-3h-10v9h10v-2zm-9-8h8c0-0.55-0.45-1-1-1h-1c-0.55 0-1-0.45-1-1s-0.45-1-1-1-1 0.45-1 1-0.45 1-1 1h-1c-0.55 0-1 0.45-1 1z"/>
</g>
</g>
</svg>
